<svg xmlns="http://www.w3.org/2000/svg" xmlns:xlink="http://www.w3.org/1999/xlink" width="500" zoomAndPan="magnify" viewBox="0 0 375 374.999991" height="500" preserveAspectRatio="xMidYMid meet" version="1.0"><defs><clipPath id="4f48dd5fc9"><path d="M 259 308 L 336 308 L 336 342.695312 L 259 342.695312 Z M 259 308 " clip-rule="nonzero"/></clipPath><clipPath id="4b672c515c"><path d="M 181 32.195312 L 186 32.195312 L 186 315 L 181 315 Z M 181 32.195312 " clip-rule="nonzero"/></clipPath><clipPath id="83130558ee"><path d="M 18 141 L 298 141 L 298 342.695312 L 18 342.695312 Z M 18 141 " clip-rule="nonzero"/></clipPath></defs><g clip-path="url(#4f48dd5fc9)"><path fill="#573961" d="M 266.226562 308.601562 C 266.226562 308.601562 294.929688 312.40625 308.183594 317.324219 C 321.441406 322.242188 335.726562 342.695312 335.726562 342.695312 L 262.367188 342.695312 L 259.019531 318.121094 L 266.226562 308.601562 " fill-opacity="1" fill-rule="nonzero"/></g><g clip-path="url(#4b672c515c)"><path fill="#573961" d="M 183.429688 314.175781 C 182.507812 314.175781 181.761719 313.429688 181.761719 312.511719 L 181.761719 32.191406 L 185.09375 32.191406 L 185.09375 312.511719 C 185.09375 313.429688 184.347656 314.175781 183.429688 314.175781 " fill-opacity="1" fill-rule="nonzero"/></g><path fill="#8e8fa1" d="M 202.789062 71.0625 C 197.773438 71.0625 193.695312 66.988281 193.695312 61.976562 L 193.695312 61.078125 C 193.695312 57.746094 190.984375 55.035156 187.652344 55.035156 L 185.09375 55.035156 L 185.09375 53.367188 L 187.652344 53.367188 C 191.90625 53.367188 195.363281 56.828125 195.363281 61.078125 L 195.363281 61.976562 C 195.363281 66.070312 198.691406 69.398438 202.789062 69.398438 C 206.878906 69.398438 210.207031 66.070312 210.207031 61.976562 L 210.207031 58.28125 L 211.875 58.28125 L 211.875 61.976562 C 211.875 66.988281 207.796875 71.0625 202.789062 71.0625 " fill-opacity="1" fill-rule="nonzero"/><path fill="#8e8fa1" d="M 164.070312 71.0625 C 169.082031 71.0625 173.15625 66.988281 173.15625 61.976562 L 173.15625 61.078125 C 173.15625 57.746094 175.871094 55.035156 179.203125 55.035156 L 181.761719 55.035156 L 181.761719 53.367188 L 179.203125 53.367188 C 174.953125 53.367188 171.492188 56.828125 171.492188 61.078125 L 171.492188 61.976562 C 171.492188 66.070312 168.160156 69.398438 164.070312 69.398438 C 159.976562 69.398438 156.648438 66.070312 156.648438 61.976562 L 156.648438 58.28125 L 154.980469 58.28125 L 154.980469 61.976562 C 154.980469 66.988281 159.058594 71.0625 164.070312 71.0625 " fill-opacity="1" fill-rule="nonzero"/><path fill="#fef3f0" d="M 211.457031 119.046875 C 211.171875 119.046875 211.011719 119.035156 211.011719 119.035156 C 211.011719 119.035156 210.851562 119.046875 210.5625 119.046875 C 208.289062 119.046875 198.027344 118.472656 195.445312 108.277344 C 192.535156 96.789062 194.535156 66.578125 194.535156 66.578125 C 194.535156 66.578125 194.6875 66.578125 194.953125 66.582031 C 196.53125 69.261719 199.453125 71.066406 202.789062 71.066406 C 207.71875 71.066406 211.746094 67.117188 211.871094 62.214844 L 213.355469 62.214844 C 214.8125 62.214844 216.121094 63.089844 216.683594 64.433594 C 217 65.179688 217.324219 65.882812 217.519531 66.105469 C 217.894531 66.539062 223.890625 66.582031 226.394531 66.582031 C 227.066406 66.582031 227.484375 66.578125 227.484375 66.578125 C 227.484375 66.578125 229.484375 96.789062 226.574219 108.277344 C 223.996094 118.472656 213.730469 119.046875 211.457031 119.046875 M 202.789062 69.398438 C 200.429688 69.398438 198.324219 68.296875 196.964844 66.578125 C 199.8125 66.558594 204.183594 66.472656 204.5 66.105469 C 204.695312 65.882812 205.023438 65.179688 205.335938 64.433594 C 205.902344 63.089844 207.210938 62.214844 208.667969 62.214844 L 210.207031 62.214844 C 210.078125 66.199219 206.800781 69.398438 202.789062 69.398438 " fill-opacity="1" fill-rule="nonzero"/><path fill="#e5dadc" d="M 202.789062 71.066406 C 199.453125 71.066406 196.53125 69.261719 194.953125 66.582031 C 195.128906 66.582031 195.355469 66.582031 195.625 66.582031 C 196.003906 66.582031 196.460938 66.582031 196.964844 66.578125 C 198.324219 68.296875 200.429688 69.398438 202.789062 69.398438 C 206.800781 69.398438 210.078125 66.199219 210.207031 62.214844 L 211.871094 62.214844 C 211.746094 67.117188 207.71875 71.066406 202.789062 71.066406 " fill-opacity="1" fill-rule="nonzero"/><path fill="#cb4252" d="M 225.558594 85.875 L 196.464844 85.875 C 196.464844 85.875 195.46875 98.484375 197.324219 106.59375 C 198.308594 110.902344 200.992188 113.394531 203.886719 114.882812 C 208.339844 117.179688 213.683594 117.179688 218.132812 114.882812 C 221.027344 113.394531 223.710938 110.902344 224.699219 106.59375 C 226.554688 98.484375 225.558594 85.875 225.558594 85.875 " fill-opacity="1" fill-rule="nonzero"/><path fill="#8e8fa1" d="M 211.875 64.304688 C 211.875 63.824219 211.488281 63.4375 211.011719 63.4375 C 210.535156 63.4375 210.144531 63.824219 210.144531 64.304688 C 210.144531 64.78125 210.535156 65.167969 211.011719 65.167969 C 211.488281 65.167969 211.875 64.78125 211.875 64.304688 " fill-opacity="1" fill-rule="nonzero"/><path fill="#8e8fa1" d="M 211.875 64.304688 L 211.875 61.410156 C 211.875 61.410156 210.207031 61.15625 210.207031 61.570312 C 210.207031 61.980469 210.144531 64.304688 210.144531 64.304688 L 211.875 64.304688 " fill-opacity="1" fill-rule="nonzero"/><path fill="#7f1d35" d="M 315.660156 258.542969 C 315.660156 258.542969 358.070312 252.765625 361.84375 255.605469 C 362.316406 255.960938 361.992188 266.105469 361.871094 266.808594 C 361.003906 271.726562 346.734375 283.847656 335.785156 284.660156 C 323.277344 285.589844 186.855469 276.539062 179.648438 274.785156 C 176.234375 273.953125 174.359375 272.9375 174.429688 271.539062 C 174.46875 270.761719 173.523438 261.238281 174.828125 260.191406 C 176.132812 259.144531 182.261719 260.433594 184.96875 259.046875 C 195.265625 253.78125 201.097656 255.605469 201.097656 255.605469 L 315.660156 258.542969 " fill-opacity="1" fill-rule="nonzero"/><path fill="#a52f40" d="M 315.660156 248.277344 C 315.660156 248.277344 357.597656 252.09375 361.375 254.929688 C 365.148438 257.765625 348.296875 273.464844 335.789062 274.394531 C 323.277344 275.324219 186.855469 266.273438 179.648438 264.519531 C 172.441406 262.761719 172.097656 260.195312 182.394531 254.929688 C 192.691406 249.660156 201.097656 245.339844 201.097656 245.339844 L 315.660156 248.277344 " fill-opacity="1" fill-rule="nonzero"/><path fill="#cb4252" d="M 25.421875 142.648438 C 25.421875 142.648438 28.652344 131.0625 87.59375 126.691406 C 146.539062 122.316406 157.421875 124.800781 169.707031 164.714844 C 181.988281 204.628906 215.777344 280.734375 229.9375 304.1875 C 195.703125 322.496094 91.457031 316.320312 91.457031 316.320312 C 91.457031 316.320312 43.066406 207.480469 43.066406 205.941406 C 43.066406 204.394531 25.421875 142.648438 25.421875 142.648438 " fill-opacity="1" fill-rule="nonzero"/><g clip-path="url(#83130558ee)"><path fill="#a52f40" d="M 297.117188 342.695312 L 85.921875 342.695312 C 85.921875 342.695312 31.480469 231.15625 20.671875 182.523438 C 9.859375 133.894531 35.34375 136.46875 42.292969 150.359375 C 49.242188 164.253906 64.429688 228.582031 77.042969 259.457031 C 89.652344 290.335938 107.644531 317.867188 107.644531 317.867188 L 264.699219 323.832031 C 264.699219 323.832031 289.652344 325.328125 297.117188 342.695312 " fill-opacity="1" fill-rule="nonzero"/></g><path fill="#96243a" d="M 230.726562 307.910156 C 230.726562 307.910156 273.136719 302.136719 276.910156 304.972656 C 277.382812 305.328125 277.0625 315.472656 276.9375 316.175781 C 276.070312 321.09375 261.804688 333.21875 250.855469 334.027344 C 238.34375 334.957031 101.921875 325.910156 94.714844 324.152344 C 91.300781 323.320312 89.425781 322.304688 89.496094 320.910156 C 89.535156 320.132812 88.589844 310.605469 89.894531 309.558594 C 91.199219 308.511719 97.328125 309.804688 100.035156 308.417969 C 110.332031 303.152344 116.164062 304.972656 116.164062 304.972656 L 230.726562 307.910156 " fill-opacity="1" fill-rule="nonzero"/><path fill="#db495e" d="M 230.726562 297.648438 C 230.726562 297.648438 272.664062 301.460938 276.4375 304.296875 C 280.214844 307.132812 263.367188 322.835938 250.855469 323.765625 C 238.34375 324.691406 101.921875 315.644531 94.714844 313.886719 C 87.507812 312.132812 87.164062 309.566406 97.460938 304.296875 C 107.757812 299.03125 116.164062 294.710938 116.164062 294.710938 L 230.726562 297.648438 " fill-opacity="1" fill-rule="nonzero"/><path fill="#d49b90" d="M 131.941406 143.242188 C 131.941406 143.242188 135.300781 141.355469 135.640625 135.953125 C 135.984375 130.550781 133.496094 127.632812 135.125 123.945312 C 136.757812 120.257812 139.648438 109.363281 131.941406 102.589844 C 124.230469 95.816406 117.367188 98.214844 110.417969 98.988281 C 103.46875 99.757812 93 93.5 83.734375 103.53125 C 74.46875 113.566406 79.101562 127.890625 82.101562 133.894531 C 85.105469 139.898438 85.105469 146.503906 87.851562 153.023438 C 90.597656 159.539062 99.664062 164.71875 99.664062 164.71875 L 131.941406 143.242188 " fill-opacity="1" fill-rule="nonzero"/><path fill="#feefec" d="M 225.042969 304.230469 C 225.042969 304.230469 192.441406 308.601562 162.882812 308.601562 C 133.324219 308.601562 119.769531 303.113281 105.699219 283.558594 C 91.625 264.003906 80.472656 242.046875 75.324219 219.574219 C 70.175781 197.105469 85.046875 188.496094 101.878906 183.039062 C 120.457031 178.410156 120.457031 178.410156 120.457031 178.410156 L 123.542969 178.410156 L 130.707031 179.566406 C 130.707031 179.566406 142.035156 176.09375 157.222656 180.46875 C 172.40625 184.839844 178.714844 190.503906 180.902344 190.757812 C 183.089844 191.015625 186.949219 190.703125 187.722656 191.824219 C 188.496094 192.945312 187.050781 196.679688 188.15625 197.191406 C 189.265625 197.707031 190.425781 196.164062 191.96875 197.0625 C 193.511719 197.964844 193 199.507812 193.128906 200.410156 C 193.257812 201.308594 199.003906 199.765625 199.21875 204.65625 C 198.789062 211.730469 183.777344 231.585938 183.777344 231.585938 L 209.859375 283.003906 L 212.433594 288.019531 L 227.746094 291.621094 L 225.042969 304.230469 " fill-opacity="1" fill-rule="nonzero"/><path fill="#ffffff" d="M 101.878906 183.039062 C 101.878906 183.039062 110.375 191.757812 123.886719 195.503906 C 122.988281 188.054688 122.085938 180.210938 122.085938 180.210938 L 131.941406 192.945312 L 130.707031 179.566406 L 126.804688 175.234375 L 102.09375 178.355469 L 101.878906 183.039062 " fill-opacity="1" fill-rule="nonzero"/><path fill="#ffc4ad" d="M 342.820312 235.851562 C 342.820312 235.851562 342.332031 240.589844 329.121094 245.734375 C 315.90625 250.882812 308.183594 250.453125 308.183594 250.453125 C 308.183594 250.453125 304.152344 242.785156 307.5 237.097656 C 310.84375 231.414062 316.28125 228.773438 316.28125 228.773438 L 340.445312 228.773438 L 342.820312 235.851562 " fill-opacity="1" fill-rule="nonzero"/><path fill="#cb4252" d="M 315.628906 232.191406 C 315.628906 232.191406 316.386719 239.867188 324.371094 240.9375 C 332.351562 242.007812 337.289062 236.25 338.113281 227.859375 C 338.9375 219.46875 337.246094 213.050781 334.429688 212.230469 C 331.613281 211.40625 321.246094 214.945312 316.964844 224.566406 C 315.894531 227.117188 315.628906 232.191406 315.628906 232.191406 " fill-opacity="1" fill-rule="nonzero"/><path fill="#cb4252" d="M 255.054688 276.796875 C 223.695312 276.796875 216.707031 251.953125 215.335938 237.140625 L 215.238281 236.070312 C 213.496094 217.3125 209.414062 173.386719 209.414062 101.859375 L 210.304688 101.859375 C 210.304688 173.347656 214.382812 217.242188 216.125 235.988281 L 216.222656 237.058594 C 217.566406 251.566406 224.402344 275.910156 255.054688 275.910156 C 269.984375 275.910156 278.480469 269.46875 282.972656 264.0625 C 287.847656 258.207031 289.207031 252.300781 289.21875 252.242188 L 290.085938 252.4375 C 290.03125 252.683594 288.664062 258.613281 283.660156 264.628906 C 279.039062 270.179688 270.328125 276.796875 255.054688 276.796875 " fill-opacity="1" fill-rule="nonzero"/><path fill="#ffc4ad" d="M 95.832031 159.195312 C 95.832031 159.195312 101.492188 172.0625 115.992188 171.375 C 130.496094 170.691406 132.980469 155.164062 131.609375 141.785156 C 130.238281 128.40625 128.691406 121.289062 128.691406 121.289062 C 128.691406 121.289062 125.945312 125.746094 119.339844 125.320312 C 112.734375 124.890625 110.589844 119.742188 103.8125 121.289062 C 97.03125 122.832031 97.890625 127.636719 99.519531 135.441406 C 101.152344 143.242188 101.835938 154.824219 95.832031 159.195312 " fill-opacity="1" fill-rule="nonzero"/><path fill="#ffc4ad" d="M 102.09375 178.355469 C 102.09375 178.355469 116.507812 179.695312 126.804688 175.234375 C 125.433594 171.03125 124.402344 166.398438 124.402344 166.398438 L 99.664062 164.714844 L 102.09375 178.355469 " fill-opacity="1" fill-rule="nonzero"/><path fill="#ffc4ad" d="M 227.746094 291.621094 C 227.746094 291.621094 250.011719 302.683594 254.773438 306.929688 C 259.535156 311.175781 269.703125 325.328125 267.902344 325.714844 C 266.097656 326.097656 259.019531 318.121094 259.019531 318.121094 C 259.019531 318.121094 266.226562 327.515625 264.042969 327.902344 C 261.851562 328.285156 254.902344 319.925781 254.902344 319.925781 C 254.902344 319.925781 260.695312 328.285156 259.019531 328.671875 C 257.347656 329.058594 251.171875 321.46875 251.171875 321.46875 C 251.171875 321.46875 255.542969 328.699219 253.875 328.6875 C 252.199219 328.671875 241.648438 315.808594 237.398438 312.847656 C 233.152344 309.890625 225.042969 304.230469 225.042969 304.230469 C 225.042969 304.230469 222.210938 296.253906 227.746094 291.621094 " fill-opacity="1" fill-rule="nonzero"/><path fill="#ffc4ad" d="M 199.21875 204.652344 C 199.21875 204.652344 224.617188 220.089844 238.511719 224.894531 C 252.414062 229.699219 288.964844 235.1875 306.46875 234.671875 C 307.667969 241.363281 308.183594 250.453125 308.183594 250.453125 C 308.183594 250.453125 275.921875 257.828125 241.433594 251.996094 C 206.941406 246.164062 183.777344 231.585938 183.777344 231.585938 C 183.777344 231.585938 187.894531 209.113281 199.21875 204.652344 " fill-opacity="1" fill-rule="nonzero"/><path fill="#ffffff" d="M 248.839844 227.710938 C 248.839844 227.710938 241.003906 230.210938 236.113281 235.613281 C 237.058594 236.988281 238.945312 238.445312 238.945312 238.445312 C 238.945312 238.445312 249.457031 230.425781 255.054688 229.03125 C 252.035156 228.414062 248.839844 227.710938 248.839844 227.710938 " fill-opacity="1" fill-rule="nonzero"/><path fill="#ffffff" d="M 261.742188 230.273438 C 261.742188 230.273438 252.84375 234.414062 248.296875 239.558594 C 251.210938 241.53125 252.5 242.21875 252.5 242.21875 C 252.5 242.21875 261.179688 233.554688 267.867188 231.285156 C 263.410156 230.5625 261.742188 230.273438 261.742188 230.273438 " fill-opacity="1" fill-rule="nonzero"/><path fill="#573961" d="M 207.285156 242.695312 C 207.285156 242.695312 207.96875 237.394531 212.433594 227.714844 C 216.894531 218.03125 218.90625 215.816406 218.90625 215.816406 C 218.90625 215.816406 220.582031 214 214.917969 211 C 209.257812 208 207.285156 209.390625 207.285156 209.390625 C 207.285156 209.390625 202.566406 216.230469 198.875 224.207031 C 195.1875 232.183594 194.65625 237.335938 194.65625 237.335938 C 194.65625 237.335938 197.507812 241.882812 207.285156 242.695312 " fill-opacity="1" fill-rule="nonzero"/><path fill="#cb4252" d="M 261.007812 237.542969 C 256.84375 237.542969 254.054688 236.089844 250.589844 234.28125 C 249.339844 233.628906 248.046875 232.953125 246.546875 232.265625 C 240.644531 229.566406 233.019531 229.222656 232.941406 229.21875 L 232.980469 228.332031 C 233.296875 228.34375 240.859375 228.6875 246.917969 231.457031 C 248.4375 232.152344 249.742188 232.832031 251.003906 233.492188 C 254.613281 235.378906 257.46875 236.867188 261.957031 236.628906 C 266.441406 236.390625 269.300781 234.695312 271.820312 233.195312 C 274.035156 231.882812 276.121094 230.644531 278.894531 230.582031 C 284.847656 230.457031 287.253906 233.632812 287.339844 233.757812 L 286.082031 233.632812 C 286.066406 233.609375 284.378906 231.34375 278.914062 231.46875 C 276.375 231.527344 274.476562 232.65625 272.277344 233.960938 C 269.667969 235.511719 266.710938 237.265625 262.003906 237.515625 C 261.664062 237.535156 261.332031 237.542969 261.007812 237.542969 " fill-opacity="1" fill-rule="nonzero"/><path fill="#ffc4ad" d="M 306.46875 234.671875 C 306.46875 234.671875 309.816406 224.980469 312.21875 223.605469 C 314.621094 222.234375 320.625 223.179688 322.429688 223.179688 C 324.230469 223.179688 327.832031 225.066406 325.945312 225.75 C 324.058594 226.4375 318.222656 226.265625 317.195312 227.296875 C 316.164062 228.324219 314.621094 237.757812 312.128906 240.675781 C 309.640625 243.589844 304.667969 240.933594 306.46875 234.671875 " fill-opacity="1" fill-rule="nonzero"/><path fill="#ffc4ad" d="M 342.289062 222.863281 C 342.289062 222.863281 342.421875 220.796875 340.617188 219.574219 C 338.816406 218.355469 333.992188 215.714844 332.898438 217.195312 C 331.804688 218.675781 339.523438 222.863281 339.523438 222.863281 C 339.523438 222.863281 332.941406 219.832031 332.789062 221.699219 C 332.636719 223.5625 338.234375 225.945312 338.234375 225.945312 C 338.234375 225.945312 333.152344 223.949219 333.539062 226.199219 C 333.925781 228.453125 338.496094 230.898438 338.496094 230.898438 C 338.496094 230.898438 333.476562 229.160156 334.183594 230.898438 C 334.890625 232.632812 340.101562 237.136719 341.96875 236.496094 C 343.835938 235.851562 343.128906 232.9375 343.128906 232.9375 C 343.128906 232.9375 344.605469 231.339844 343.902344 229.445312 C 343.191406 227.550781 342.355469 227.230469 342.355469 227.230469 C 342.355469 227.230469 343.773438 226.007812 343.320312 224.464844 C 342.871094 222.921875 342.289062 222.863281 342.289062 222.863281 " fill-opacity="1" fill-rule="nonzero"/><path fill="#eed5d6" d="M 212.433594 288.019531 C 212.433594 288.019531 154.773438 282.871094 144.996094 278.5 C 135.210938 274.125 111.273438 224.464844 111.273438 224.464844 C 111.273438 224.464844 140.359375 271.9375 145.765625 275.152344 C 151.171875 278.371094 209.859375 283.003906 209.859375 283.003906 L 212.433594 288.019531 " fill-opacity="1" fill-rule="nonzero"/><path fill="#eed5d6" d="M 183.777344 231.585938 C 183.777344 231.585938 169.0625 207.867188 162.882812 197.832031 C 173.824219 212.242188 175.625 212.757812 175.882812 212.113281 C 176.140625 211.472656 184.71875 195.648438 183.777344 198.992188 C 182.832031 202.335938 178.585938 214.214844 179.613281 214.707031 C 180.644531 215.203125 188.878906 201.824219 188.109375 206.324219 C 187.335938 210.828125 183.175781 217.519531 183.777344 219.703125 C 184.375 221.890625 186.257812 222.480469 186.257812 222.480469 L 183.777344 231.585938 " fill-opacity="1" fill-rule="nonzero"/><path fill="#efa087" d="M 124.84375 168.265625 C 124.84375 168.265625 122.402344 170.859375 113.234375 169.488281 C 104.066406 168.117188 99.664062 164.714844 99.664062 164.714844 L 101.539062 175.234375 C 101.539062 175.234375 115.136719 176.945312 125.433594 170.558594 C 125.121094 169.371094 124.84375 168.265625 124.84375 168.265625 " fill-opacity="1" fill-rule="nonzero"/></svg>