<svg xmlns="http://www.w3.org/2000/svg" xmlns:xlink="http://www.w3.org/1999/xlink" zoomAndPan="magnify" preserveAspectRatio="xMidYMid meet" version="1.0" viewBox="52.88 117.9 269.25 146.4"><defs><g/><clipPath id="8777a53df8"><path d="M 216 162 L 322.871094 162 L 322.871094 222 L 216 222 Z M 216 162 " clip-rule="nonzero"/></clipPath><clipPath id="636750fd9e"><path d="M 52.304688 162 L 156 162 L 156 222 L 52.304688 222 Z M 52.304688 162 " clip-rule="nonzero"/></clipPath><clipPath id="918341c904"><path d="M 149 117.9375 L 221 117.9375 L 221 222 L 149 222 Z M 149 117.9375 " clip-rule="nonzero"/></clipPath></defs><g clip-path="url(#8777a53df8)"><path fill="#f54748" d="M 320.851562 200.886719 L 294.191406 200.886719 L 287.855469 191.003906 C 287.582031 190.578125 287.078125 190.355469 286.582031 190.445312 C 286.085938 190.535156 285.6875 190.910156 285.574219 191.402344 L 283.667969 199.78125 L 280.960938 192.734375 C 280.757812 192.210938 280.25 191.890625 279.683594 191.933594 C 279.125 191.976562 278.664062 192.386719 278.554688 192.9375 L 275.902344 206.085938 L 273.09375 180.34375 C 273.027344 179.734375 272.527344 179.261719 271.910156 179.230469 C 271.308594 179.195312 270.746094 179.617188 270.617188 180.21875 L 266.875 197.578125 L 263.917969 190.6875 C 263.707031 190.1875 263.195312 189.875 262.664062 189.929688 C 262.128906 189.972656 261.675781 190.351562 261.546875 190.878906 L 260.425781 195.351562 L 257.917969 182.199219 C 257.800781 181.574219 257.246094 181.128906 256.601562 181.179688 C 255.96875 181.21875 255.46875 181.726562 255.429688 182.359375 L 254.019531 205.945312 L 251.628906 195.582031 C 251.488281 194.992188 250.957031 194.589844 250.351562 194.605469 C 249.746094 194.632812 249.246094 195.082031 249.15625 195.679688 L 247.121094 209.53125 L 243.488281 163.546875 C 243.4375 162.898438 242.910156 162.398438 242.261719 162.386719 L 242.234375 162.386719 C 241.601562 162.386719 241.0625 162.863281 240.992188 163.492188 L 237.175781 195.265625 L 235.921875 191.304688 C 235.738281 190.707031 235.136719 190.34375 234.519531 190.441406 C 233.90625 190.542969 233.457031 191.085938 233.46875 191.710938 L 233.496094 192.878906 L 231.964844 181.996094 C 231.878906 181.382812 231.363281 180.925781 230.75 180.914062 C 230.117188 180.914062 229.597656 181.335938 229.484375 181.941406 L 227.167969 194.429688 L 216.457031 194.429688 C 216.632812 195.367188 216.53125 196.21875 216.207031 196.941406 L 228.21875 196.941406 C 228.824219 196.941406 229.34375 196.511719 229.453125 195.917969 L 230.550781 189.988281 L 233.980469 214.386719 C 234.078125 215.046875 234.648438 215.523438 235.328125 215.46875 C 235.992188 215.414062 236.5 214.851562 236.484375 214.1875 L 236.179688 200.453125 L 236.53125 201.574219 C 236.707031 202.140625 237.246094 202.503906 237.847656 202.445312 C 238.4375 202.390625 238.90625 201.933594 238.976562 201.34375 L 241.976562 176.34375 L 245.488281 220.824219 C 245.539062 221.457031 246.058594 221.957031 246.699219 221.980469 L 246.742188 221.980469 C 247.363281 221.980469 247.894531 221.523438 247.988281 220.90625 L 250.675781 202.636719 L 253.53125 214.996094 C 253.667969 215.605469 254.234375 216.023438 254.859375 215.96875 C 255.480469 215.914062 255.972656 215.414062 256.011719 214.789062 L 257.335938 192.570312 L 259.027344 201.429688 C 259.136719 202.011719 259.636719 202.433594 260.226562 202.453125 C 260.8125 202.492188 261.335938 202.070312 261.480469 201.5 L 263.078125 195.105469 L 266.117188 202.191406 C 266.332031 202.695312 266.847656 202.996094 267.390625 202.949219 C 267.9375 202.894531 268.382812 202.496094 268.5 201.957031 L 271.4375 188.339844 L 274.28125 214.414062 C 274.347656 215.027344 274.851562 215.503906 275.472656 215.53125 C 276.109375 215.542969 276.640625 215.132812 276.757812 214.527344 L 280.164062 197.671875 L 282.804688 204.542969 C 283 205.0625 283.515625 205.390625 284.0625 205.347656 C 284.621094 205.308594 285.082031 204.914062 285.203125 204.371094 L 287.359375 194.886719 L 292.449219 202.824219 C 292.679688 203.1875 293.078125 203.402344 293.507812 203.402344 L 320.851562 203.402344 C 321.546875 203.402344 322.109375 202.839844 322.109375 202.144531 C 322.109375 201.449219 321.546875 200.886719 320.851562 200.886719 " fill-opacity="1" fill-rule="nonzero"/></g><g clip-path="url(#636750fd9e)"><path fill="#f54748" d="M 154.691406 194.429688 L 147.824219 194.429688 L 145.507812 181.941406 C 145.394531 181.335938 144.875 180.914062 144.242188 180.914062 C 143.628906 180.925781 143.113281 181.382812 143.027344 181.996094 L 141.496094 192.878906 L 141.523438 191.710938 C 141.539062 191.085938 141.089844 190.542969 140.472656 190.441406 C 139.855469 190.34375 139.253906 190.707031 139.070312 191.304688 L 137.816406 195.265625 L 134.003906 163.492188 C 133.929688 162.863281 133.390625 162.386719 132.757812 162.386719 L 132.730469 162.386719 C 132.082031 162.398438 131.554688 162.898438 131.5 163.546875 L 127.871094 209.53125 L 125.835938 195.679688 C 125.746094 195.082031 125.246094 194.632812 124.640625 194.605469 C 124.039062 194.589844 123.5 194.992188 123.367188 195.582031 L 120.972656 205.945312 L 119.5625 182.359375 C 119.527344 181.726562 119.019531 181.21875 118.390625 181.179688 C 117.746094 181.128906 117.195312 181.574219 117.074219 182.199219 L 114.566406 195.351562 L 113.445312 190.878906 C 113.316406 190.351562 112.867188 189.972656 112.328125 189.929688 C 111.796875 189.875 111.289062 190.1875 111.074219 190.6875 L 108.117188 197.578125 L 104.375 180.21875 C 104.246094 179.617188 103.6875 179.195312 103.082031 179.230469 C 102.464844 179.261719 101.964844 179.734375 101.894531 180.34375 L 99.09375 206.085938 L 96.4375 192.9375 C 96.324219 192.386719 95.867188 191.976562 95.308594 191.933594 C 94.742188 191.890625 94.234375 192.210938 94.027344 192.734375 L 91.324219 199.78125 L 89.417969 191.402344 C 89.308594 190.910156 88.90625 190.535156 88.410156 190.445312 C 87.914062 190.355469 87.410156 190.578125 87.132812 191.003906 L 80.800781 200.886719 L 54.144531 200.886719 C 53.449219 200.886719 52.886719 201.449219 52.886719 202.144531 C 52.886719 202.839844 53.449219 203.402344 54.144531 203.402344 L 81.484375 203.402344 C 81.914062 203.402344 82.3125 203.1875 82.542969 202.824219 L 87.632812 194.886719 L 89.789062 204.371094 C 89.914062 204.914062 90.375 205.308594 90.925781 205.347656 C 91.476562 205.390625 91.992188 205.0625 92.1875 204.542969 L 94.828125 197.671875 L 98.234375 214.527344 C 98.355469 215.132812 98.882812 215.542969 99.523438 215.53125 C 100.140625 215.503906 100.648438 215.027344 100.710938 214.414062 L 103.554688 188.339844 L 106.492188 201.957031 C 106.609375 202.496094 107.058594 202.894531 107.597656 202.949219 C 108.144531 202.996094 108.660156 202.695312 108.875 202.191406 L 111.914062 195.105469 L 113.511719 201.5 C 113.652344 202.070312 114.179688 202.492188 114.765625 202.453125 C 115.355469 202.433594 115.855469 202.011719 115.96875 201.429688 L 117.65625 192.570312 L 118.984375 214.789062 C 119.019531 215.414062 119.507812 215.914062 120.132812 215.96875 C 120.753906 216.023438 121.320312 215.605469 121.460938 214.996094 L 124.316406 202.636719 L 127.003906 220.90625 C 127.097656 221.523438 127.625 221.980469 128.25 221.980469 L 128.292969 221.980469 C 128.933594 221.957031 129.453125 221.457031 129.503906 220.824219 L 133.015625 176.34375 L 136.015625 201.34375 C 136.085938 201.933594 136.554688 202.390625 137.144531 202.445312 C 137.746094 202.503906 138.28125 202.140625 138.460938 201.574219 L 138.816406 200.453125 L 138.507812 214.1875 C 138.496094 214.851562 139 215.414062 139.664062 215.46875 C 140.347656 215.523438 140.917969 215.046875 141.007812 214.386719 L 144.441406 189.988281 L 145.539062 195.917969 C 145.652344 196.511719 146.171875 196.941406 146.773438 196.941406 L 155.613281 196.941406 C 155.242188 196.121094 154.933594 195.273438 154.691406 194.429688 " fill-opacity="1" fill-rule="nonzero"/></g><path fill="#f54748" d="M 194.398438 175.253906 C 191.507812 177.652344 186.371094 178.140625 183.335938 175.675781 C 182.453125 174.964844 181.867188 174.066406 181.148438 173.210938 C 180.957031 172.96875 180.753906 172.734375 180.539062 172.515625 C 180.445312 172.542969 180.269531 172.550781 180.007812 172.542969 C 178.089844 173.320312 176.925781 174.796875 174.695312 174.980469 C 170.621094 175.320312 166.566406 174.984375 162.695312 173.890625 C 161.160156 177.679688 160.207031 181.117188 160.207031 183.8125 C 160.207031 197.617188 171.398438 208.8125 185.207031 208.8125 C 199.011719 208.8125 210.203125 197.617188 210.203125 183.8125 C 210.203125 181.492188 209.492188 178.613281 208.316406 175.4375 C 203.652344 174.46875 198.546875 171.808594 194.398438 175.253906 " fill-opacity="1" fill-rule="nonzero"/><g clip-path="url(#918341c904)"><path fill="#f54748" d="M 185.207031 213.894531 C 168.210938 213.894531 154.433594 200.117188 154.433594 183.121094 C 154.433594 174.660156 162.058594 160.234375 169.714844 147.875 C 177.441406 135.40625 185.207031 125.035156 185.207031 125.035156 C 185.207031 125.035156 215.980469 166.125 215.980469 183.121094 C 215.980469 200.117188 202.203125 213.894531 185.207031 213.894531 Z M 185.207031 117.917969 C 185.207031 117.917969 176.199219 129.945312 167.230469 144.417969 C 158.347656 158.757812 149.5 175.492188 149.5 185.308594 C 149.5 205.027344 165.488281 221.011719 185.207031 221.011719 C 204.925781 221.011719 220.910156 205.027344 220.910156 185.308594 C 220.910156 165.585938 185.207031 117.917969 185.207031 117.917969 " fill-opacity="1" fill-rule="nonzero"/></g><g fill="#f54748" fill-opacity="1"><g transform="translate(152.180888, 248.50584)"><g><path d="M 14.90625 15.78125 C 13.113281 15.78125 11.367188 15.566406 9.671875 15.140625 C 7.972656 14.710938 6.441406 14.035156 5.078125 13.109375 C 3.722656 12.191406 2.644531 11.007812 1.84375 9.5625 C 1.039062 8.125 0.640625 6.390625 0.640625 4.359375 C 0.640625 2.097656 1.113281 0.0234375 2.0625 -1.859375 C 3.007812 -3.742188 4.335938 -5.394531 6.046875 -6.8125 C 4.847656 -7.445312 3.832031 -8.375 3 -9.59375 C 2.175781 -10.8125 1.765625 -12.328125 1.765625 -14.140625 C 1.765625 -15.828125 2.203125 -17.285156 3.078125 -18.515625 C 3.960938 -19.742188 5.140625 -20.691406 6.609375 -21.359375 C 8.078125 -22.023438 9.679688 -22.359375 11.421875 -22.359375 C 12.242188 -22.359375 13.03125 -22.300781 13.78125 -22.1875 C 14.53125 -22.082031 15.289062 -21.925781 16.0625 -21.71875 L 15.1875 -16.390625 C 14.625 -16.515625 14.046875 -16.617188 13.453125 -16.703125 C 12.867188 -16.785156 12.351562 -16.828125 11.90625 -16.828125 C 10.488281 -16.828125 9.378906 -16.53125 8.578125 -15.9375 C 7.773438 -15.351562 7.375 -14.554688 7.375 -13.546875 C 7.375 -12.710938 7.734375 -11.96875 8.453125 -11.3125 C 9.171875 -10.664062 10 -10.179688 10.9375 -9.859375 C 13.257812 -10.921875 15.820312 -11.664062 18.625 -12.09375 L 19.953125 -6.8125 C 15.253906 -5.957031 11.796875 -4.570312 9.578125 -2.65625 C 7.359375 -0.75 6.25 1.390625 6.25 3.765625 C 6.25 4.960938 6.519531 5.972656 7.0625 6.796875 C 7.613281 7.628906 8.328125 8.289062 9.203125 8.78125 C 10.085938 9.28125 11.03125 9.632812 12.03125 9.84375 C 13.039062 10.0625 14 10.171875 14.90625 10.171875 C 16.75 10.171875 18.460938 10 20.046875 9.65625 C 21.640625 9.3125 23.035156 8.882812 24.234375 8.375 L 25.84375 13.546875 C 25.195312 13.859375 24.289062 14.1875 23.125 14.53125 C 21.96875 14.882812 20.675781 15.179688 19.25 15.421875 C 17.820312 15.660156 16.375 15.78125 14.90625 15.78125 Z M 14.90625 15.78125 "/></g></g></g><g fill="#f54748" fill-opacity="1"><g transform="translate(175.003588, 248.50584)"><g><path d="M 0.640625 9.25 L -1.40625 4.28125 C 0.488281 3.613281 2.171875 2.832031 3.640625 1.9375 C 5.109375 1.039062 6.265625 0.015625 7.109375 -1.140625 C 7.953125 -2.304688 8.375 -3.609375 8.375 -5.046875 C 8.375 -6.171875 8.117188 -7.398438 7.609375 -8.734375 C 7.097656 -10.066406 6.484375 -11.425781 5.765625 -12.8125 L 11.015625 -15.34375 C 11.472656 -14.519531 11.882812 -13.628906 12.25 -12.671875 C 12.625 -11.722656 12.929688 -10.875 13.171875 -10.125 C 13.421875 -9.382812 13.582031 -8.878906 13.65625 -8.609375 C 14.03125 -7.328125 14.546875 -6.472656 15.203125 -6.046875 C 15.859375 -5.617188 16.921875 -5.40625 18.390625 -5.40625 C 19.378906 -5.40625 20.097656 -5.144531 20.546875 -4.625 C 21.003906 -4.101562 21.234375 -3.457031 21.234375 -2.6875 C 21.234375 -1.851562 20.953125 -1.160156 20.390625 -0.609375 C 19.828125 -0.0664062 19.023438 0.203125 17.984375 0.203125 C 15.953125 0.203125 14.40625 -0.34375 13.34375 -1.4375 C 12.882812 0.21875 12.019531 1.742188 10.75 3.140625 C 9.488281 4.546875 7.972656 5.769531 6.203125 6.8125 C 4.441406 7.851562 2.585938 8.664062 0.640625 9.25 Z M 0.640625 9.25 "/></g></g></g><g fill="#f54748" fill-opacity="1"><g transform="translate(193.021514, 248.50584)"><g><path d="M 0 0.203125 L 0.40625 -5.40625 C 1.414062 -5.40625 2.21875 -5.5 2.8125 -5.6875 C 3.414062 -5.875 3.898438 -6.253906 4.265625 -6.828125 C 4.628906 -7.398438 4.9375 -8.25 5.1875 -9.375 C 5.4375 -10.5 5.695312 -11.992188 5.96875 -13.859375 L 11.21875 -12.984375 C 11.113281 -12.367188 10.992188 -11.632812 10.859375 -10.78125 C 10.722656 -9.925781 10.65625 -9.132812 10.65625 -8.40625 C 10.65625 -7.769531 10.796875 -7.222656 11.078125 -6.765625 C 11.359375 -6.316406 11.863281 -5.976562 12.59375 -5.75 C 13.332031 -5.519531 14.394531 -5.40625 15.78125 -5.40625 C 16.800781 -5.40625 17.523438 -5.144531 17.953125 -4.625 C 18.378906 -4.101562 18.59375 -3.457031 18.59375 -2.6875 C 18.59375 -1.851562 18.316406 -1.160156 17.765625 -0.609375 C 17.222656 -0.0664062 16.429688 0.203125 15.390625 0.203125 C 13.242188 0.203125 11.578125 -0.0195312 10.390625 -0.46875 C 9.203125 -0.925781 8.359375 -1.742188 7.859375 -2.921875 C 6.867188 -1.535156 5.695312 -0.664062 4.34375 -0.3125 C 3 0.03125 1.550781 0.203125 0 0.203125 Z M 7.125 9.40625 C 6.351562 9.40625 5.691406 9.140625 5.140625 8.609375 C 4.597656 8.078125 4.328125 7.421875 4.328125 6.640625 C 4.328125 5.867188 4.597656 5.195312 5.140625 4.625 C 5.691406 4.050781 6.351562 3.765625 7.125 3.765625 C 7.875 3.765625 8.53125 4.050781 9.09375 4.625 C 9.65625 5.195312 9.9375 5.867188 9.9375 6.640625 C 9.9375 7.421875 9.65625 8.078125 9.09375 8.609375 C 8.53125 9.140625 7.875 9.40625 7.125 9.40625 Z M 7.125 9.40625 "/></g></g></g><g fill="#f54748" fill-opacity="1"><g transform="translate(208.39681, 248.50584)"><g><path d="M 0 0.203125 L 0.40625 -5.40625 C 2 -5.40625 3.222656 -5.484375 4.078125 -5.640625 C 4.941406 -5.804688 5.539062 -6.109375 5.875 -6.546875 C 6.207031 -6.992188 6.375 -7.628906 6.375 -8.453125 C 6.375 -9.203125 6.269531 -10.097656 6.0625 -11.140625 C 5.863281 -12.179688 5.601562 -13.253906 5.28125 -14.359375 C 4.96875 -15.472656 4.648438 -16.507812 4.328125 -17.46875 L 9.859375 -18.984375 C 10.179688 -18.078125 10.507812 -17.019531 10.84375 -15.8125 C 11.175781 -14.613281 11.445312 -13.375 11.65625 -12.09375 C 11.875 -10.8125 11.984375 -9.597656 11.984375 -8.453125 C 11.984375 -6.640625 11.6875 -5.164062 11.09375 -4.03125 C 10.507812 -2.894531 9.6875 -2.019531 8.625 -1.40625 C 7.570312 -0.789062 6.3125 -0.367188 4.84375 -0.140625 C 3.375 0.0859375 1.757812 0.203125 0 0.203125 Z M 3.921875 -22.265625 C 3.148438 -22.265625 2.488281 -22.535156 1.9375 -23.078125 C 1.394531 -23.628906 1.125 -24.28125 1.125 -25.03125 C 1.125 -25.8125 1.394531 -26.476562 1.9375 -27.03125 C 2.488281 -27.59375 3.148438 -27.875 3.921875 -27.875 C 4.671875 -27.875 5.3125 -27.59375 5.84375 -27.03125 C 6.382812 -26.476562 6.65625 -25.8125 6.65625 -25.03125 C 6.65625 -24.28125 6.382812 -23.628906 5.84375 -23.078125 C 5.3125 -22.535156 4.671875 -22.265625 3.921875 -22.265625 Z M 10.859375 -22.234375 C 10.078125 -22.234375 9.410156 -22.5 8.859375 -23.03125 C 8.316406 -23.5625 8.046875 -24.21875 8.046875 -25 C 8.046875 -25.769531 8.316406 -26.4375 8.859375 -27 C 9.410156 -27.5625 10.078125 -27.84375 10.859375 -27.84375 C 11.609375 -27.84375 12.25 -27.5625 12.78125 -27 C 13.3125 -26.4375 13.578125 -25.769531 13.578125 -25 C 13.578125 -24.21875 13.3125 -23.5625 12.78125 -23.03125 C 12.25 -22.5 11.609375 -22.234375 10.859375 -22.234375 Z M 10.859375 -22.234375 "/></g></g></g></svg>